<svg xmlns="http://www.w3.org/2000/svg" viewBox="0 0 24 24"><path d="M20.1 4H3.6c-.5 0-.9.4-.9.9v10.5c0 .5.4.9.9.9h6.2v2H7.4c-.5 0-.8.4-.8.8s.3.9.8.9h9c.5 0 .8-.4.8-.8s-.4-.8-.8-.8H14v-2h6.2c.5 0 .9-.4.9-.9V4.9c-.1-.5-.5-.9-1-.9zm-.4 11H4.1V5.4h15.6V15zM6.9 10.7L9.7 12h.2c.1 0 .2 0 .3-.1.2-.1.3-.3.3-.5s-.1-.4-.3-.5l-1.7-.8 1.7-.8c.2-.1.3-.3.3-.5s-.1-.4-.3-.5h-.3c-.1 0-.2 0-.2.1L6.9 9.6c-.2.1-.3.3-.3.5 0 .3.1.5.3.6zm3.6 2.6c.1.1.3.2.4.2.2 0 .4-.2.5-.4l1.8-5.8c.1-.2 0-.4-.1-.5-.1-.1-.3-.2-.4-.2-.2 0-.4.2-.5.4l-1.8 5.8c0 .2 0 .4.1.5zm2.8-4.5c0 .2.1.4.3.5l1.7.8-1.7.9c-.2.1-.3.3-.3.5s.1.4.3.5c.1.1.2.1.3.1.1 0 .2 0 .2-.1l2.8-1.3c.2-.1.3-.3.3-.5s-.1-.4-.3-.5L14 8.3c-.1 0-.1-.1-.2-.1s-.2 0-.3.1c-.1.2-.2.3-.2.5z"/></svg>