<svg xmlns="http://www.w3.org/2000/svg" viewBox="0 0 24 24"><path d="M15.3 3.3c0-.2.1-.3.3-.3h.4c.2 0 .3.1.3.3 0 .2-.1.3-.3.3h-.3c-.2.1-.4-.1-.4-.3zm-5 .4h3.3c.2 0 .3-.1.3-.3.1-.3 0-.4-.2-.4h-3.3c-.3 0-.4.1-.4.3 0 .2.1.4.3.4zm7.4 14.6v2.5c0 .7-.5 1.2-1.2 1.2h-9c-.7 0-1.2-.5-1.2-1.2V3.2c0-.7.6-1.2 1.2-1.2h8.9c.7 0 1.2.5 1.2 1.2v15.1zM7 18h10V4.7H7V18zM7 3.2V4h10v-.8c0-.3-.2-.5-.5-.5h-9c-.3 0-.5.2-.5.5zm10 17.6v-2.1H7v2.1c0 .3.2.5.5.5h8.9c.4 0 .6-.2.6-.5zm-3.7-.9v.2c0 .5-.4.9-.9.9h-.8c-.5 0-.9-.4-.9-.9v-.2c0-.5.4-.9.9-.9h.8c.5 0 .9.4.9.9zm-.6 0c0-.1-.1-.3-.3-.3h-.8c-.1 0-.3.1-.3.3v.2c0 .1.1.3.3.3h.8c.1 0 .3-.1.3-.3v-.2zm3.8 2.5h-9c-.9 0-1.6-.7-1.6-1.6V3.2c0-.9.7-1.6 1.6-1.6h8.9c.9 0 1.6.7 1.6 1.6v17.6c0 .9-.7 1.6-1.5 1.6zM13.4 21h3.1c.1 0 .2-.1.2-.2V19h-3.3c.2.2.3.5.3.9v.2c0 .3-.1.6-.3.9zm-6-2v1.8c0 .1.1.2.2.2h3.1c-.2-.2-.3-.5-.3-.9v-.2c0-.3.1-.6.3-.9H7.4zm0-1.4h9.2V5H7.4v12.6zm6.9-14h.7v-.3V3h-.7c0 .1.1.2.1.3s0 .2-.1.3zm-6.9 0h2.3c0-.1-.1-.2-.1-.3s0-.2.1-.3H7.5c-.1 0-.1.1-.1.2v.4z"/></svg>